<svg xmlns="http://www.w3.org/2000/svg" fill="none" viewBox="-0.5 -0.5 16 16" id="Wallet--Streamline-Solar.svg" height="16" width="16"><desc>Wallet Streamline Icon: https://streamlinehq.com</desc><g id="Line Duotone/Money/Wallet"><path id="Vector" stroke="#737373" d="M13.6295625 5.4488125C13.5764375 4.1686875 13.405000000000001 3.3838125000000003 12.8524375 2.8312500000000003C12.051437499999999 2.03025 10.7621875 2.03025 8.18375 2.03025H6.1325625C3.5540624999999997 2.03025 2.264875 2.03025 1.4638125 2.8312500000000003C0.6628125 3.6323125000000003 0.6628125 4.9215 0.6628125 7.5C0.6628125 10.0784375 0.6628125 11.367750000000001 1.4638125 12.168687499999999C2.264875 12.96975 3.5540624999999997 12.96975 6.1325625 12.96975H8.1836875C10.7621875 12.96975 12.051437499999999 12.96975 12.8524375 12.168687499999999C13.405000000000001 11.616187499999999 13.5764375 10.831312500000001 13.6295625 9.551187500000001" stroke-width="1"></path><path id="Vector (Stroke)" fill="#737373" fill-rule="evenodd" d="M10.9125625 7.5C10.9125625 7.122375 11.2186875 6.81625 11.5963125 6.81625H11.6024375C11.980062499999999 6.81625 12.2861875 7.122375 12.2861875 7.5S11.980062499999999 8.1836875 11.6024375 8.1836875H11.5963125C11.2186875 8.1836875 10.9125625 7.877625 10.9125625 7.5Z" clip-rule="evenodd" stroke-width="1"></path><path id="Vector_2" stroke="#000" stroke-linecap="round" stroke-linejoin="round" d="M3.3976875 4.765125H6.1325625" stroke-width="1"></path><path id="Vector_3" stroke="#000" d="M13.5395 5.4488125H11.760124999999999C10.5401875 5.4488125 9.551187500000001 6.367125 9.551187500000001 7.5S10.5401875 9.551187500000001 11.760124999999999 9.551187500000001H13.5395C13.5965 9.551187500000001 13.624937500000001 9.551187500000001 13.6490625 9.54975C14.01775 9.52725 14.3114375 9.2545625 14.335625 8.912125C14.337187499999999 8.8898125 14.337187499999999 8.8633125 14.337187499999999 8.8105V6.1895C14.337187499999999 6.1366875 14.337187499999999 6.1101875 14.335625 6.0878125C14.3114375 5.7454375 14.01775 5.47275 13.6490625 5.4503125C13.625 5.4488125 13.596562500000001 5.4488125 13.5395 5.4488125Z" stroke-width="1"></path></g></svg>